<?xml version="1.0" encoding="UTF-8"?>
<svg id="csharp" data-name="csharp" xmlns="http://www.w3.org/2000/svg" viewBox="0 0 41.75 48.14">
  <defs>
    <style>
      .cls-1 {
        fill: #fff;
      }

      .cls-2 {
        fill: #953dac;
      }

      .cls-3 {
        fill: #822c98;
      }

      .cls-4 {
        fill: #68217a;
      }
    </style>
  </defs>
  <g id="csharp" data-name="csharp">
    <g>
      <g>
        <path class="cls-3" d="M41.5,12.16v23.82l-6.94-4.01-6.99-4.03-6.69-3.87,6.69-3.86,6.99-4.03,6.94-4.01ZM40.32,22.34v-1.42h-1.17l.32-1.93h-1.37l-.34,1.93h-1.91l.32-1.93h-1.37l-.34,1.93h-1.73v1.42h1.48l-.38,2.16h-1.48v1.42h1.22l-.36,2.01h1.47l.34-2.01h1.85l-.36,2.01h1.47l.34-2.01h1.61v-1.42h-1.38l.36-2.16h1.4Z"/>
        <path class="cls-2" d="M41.5,12.16l-6.94,4.01c-2.73-4.72-7.83-7.9-13.68-7.9-8.72,0-15.8,7.07-15.8,15.8,0,2.88.77,5.57,2.11,7.9L.25,35.98V12.16L20.88.25l20.63,11.91Z"/>
        <path class="cls-4" d="M41.5,35.98l-20.63,11.91L.25,35.98l6.94-4.01c2.73,4.72,7.84,7.9,13.68,7.9s10.95-3.18,13.68-7.9l6.94,4.01Z"/>
        <path class="cls-1" d="M40.32,20.91v1.42h-1.4l-.36,2.16h1.38v1.42h-1.61l-.34,2.01h-1.47l.36-2.01h-1.85l-.34,2.01h-1.47l.36-2.01h-1.22v-1.42h1.48l.38-2.16h-1.48v-1.42h1.73l.34-1.93h1.37l-.32,1.93h1.91l.34-1.93h1.37l-.32,1.93h1.17ZM37.12,24.5l.38-2.16h-1.89l-.36,2.16h1.87Z"/>
        <polygon class="cls-3" points="37.5 22.34 37.12 24.5 35.25 24.5 35.61 22.34 37.5 22.34"/>
        <path class="cls-1" d="M34.56,16.17l-6.99,4.03c-1.34-2.31-3.83-3.87-6.69-3.87-4.27,0-7.73,3.46-7.73,7.73,0,1.41.38,2.73,1.04,3.87,1.34,2.31,3.83,3.87,6.69,3.87s5.36-1.55,6.69-3.87l6.99,4.03c-2.73,4.72-7.84,7.9-13.68,7.9s-10.95-3.18-13.68-7.9c-1.34-2.33-2.11-5.02-2.11-7.9,0-8.72,7.07-15.8,15.8-15.8,5.85,0,10.95,3.18,13.68,7.9Z"/>
        <path class="cls-2" d="M27.57,20.2l-6.69,3.86-6.69,3.87c-.66-1.14-1.04-2.46-1.04-3.87,0-4.27,3.46-7.73,7.73-7.73,2.86,0,5.36,1.55,6.69,3.87Z"/>
        <path class="cls-4" d="M20.88,24.07l6.69,3.87c-1.34,2.31-3.83,3.87-6.69,3.87s-5.36-1.55-6.69-3.87l6.69-3.87Z"/>
      </g>
      <g>
        <path class="cls-3" d="M41.5,12.16v23.82l-6.94-4.01-6.99-4.03-6.69-3.87,6.69-3.86,6.99-4.03,6.94-4.01ZM40.32,22.34v-1.42h-1.17l.32-1.93h-1.37l-.34,1.93h-1.91l.32-1.93h-1.37l-.34,1.93h-1.73v1.42h1.48l-.38,2.16h-1.48v1.42h1.22l-.36,2.01h1.47l.34-2.01h1.85l-.36,2.01h1.47l.34-2.01h1.61v-1.42h-1.38l.36-2.16h1.4Z"/>
        <path class="cls-2" d="M41.5,12.16l-6.94,4.01c-2.73-4.72-7.83-7.9-13.68-7.9-8.72,0-15.8,7.07-15.8,15.8,0,2.88.77,5.57,2.11,7.9L.25,35.98V12.16L20.88.25l20.63,11.91Z"/>
        <path class="cls-4" d="M41.5,35.98l-20.63,11.91L.25,35.98l6.94-4.01c2.73,4.72,7.84,7.9,13.68,7.9s10.95-3.18,13.68-7.9l6.94,4.01Z"/>
        <path class="cls-1" d="M40.32,20.91v1.42h-1.4l-.36,2.16h1.38v1.42h-1.61l-.34,2.01h-1.47l.36-2.01h-1.85l-.34,2.01h-1.47l.36-2.01h-1.22v-1.42h1.48l.38-2.16h-1.48v-1.42h1.73l.34-1.93h1.37l-.32,1.93h1.91l.34-1.93h1.37l-.32,1.93h1.17ZM37.12,24.5l.38-2.16h-1.89l-.36,2.16h1.87Z"/>
        <polygon class="cls-3" points="37.5 22.34 37.12 24.5 35.25 24.5 35.61 22.34 37.5 22.34"/>
        <path class="cls-1" d="M34.56,16.17l-6.99,4.03c-1.34-2.31-3.83-3.87-6.69-3.87-4.27,0-7.73,3.46-7.73,7.73,0,1.41.38,2.73,1.04,3.87,1.34,2.31,3.83,3.87,6.69,3.87s5.36-1.55,6.69-3.87l6.99,4.03c-2.73,4.72-7.84,7.9-13.68,7.9s-10.95-3.18-13.68-7.9c-1.34-2.33-2.11-5.02-2.11-7.9,0-8.72,7.07-15.8,15.8-15.8,5.85,0,10.95,3.18,13.68,7.9Z"/>
        <path class="cls-2" d="M27.57,20.2l-6.69,3.86-6.69,3.87c-.66-1.14-1.04-2.46-1.04-3.87,0-4.27,3.46-7.73,7.73-7.73,2.86,0,5.36,1.55,6.69,3.87Z"/>
        <path class="cls-4" d="M20.88,24.07l6.69,3.87c-1.34,2.31-3.83,3.87-6.69,3.87s-5.36-1.55-6.69-3.87l6.69-3.87Z"/>
      </g>
    </g>
  </g>
</svg>