<?xml version="1.0" encoding="UTF-8"?>
<svg id="dotnet" data-name="dotnet" xmlns="http://www.w3.org/2000/svg" viewBox="0 0 137.92 158.94">
  <defs>
    <style>
      .cls-1 {
        fill: #fff;
      }

      .cls-2 {
        fill: #6c429c;
      }

      .cls-3 {
        fill: #452276;
      }
    </style>
  </defs>
  <g id="dotnet">
    <polygon class="cls-2" points="137.67 119.27 115.39 132.13 68.96 158.94 .25 119.27 .25 39.92 137.67 119.27"/>
    <polygon class="cls-3" points="137.67 39.92 137.67 119.27 .25 39.92 22.61 27.01 68.96 .25 137.67 39.92"/>
    <circle class="cls-1" cx="19.38" cy="88.63" r="5.66"/>
    <polygon class="cls-1" points="76.7 67.43 76.7 72.45 92.23 72.45 92.23 80.13 76.7 80.13 76.7 86 92.23 86 92.23 93.41 67.41 93.41 67.41 59.47 92.23 59.47 92.23 67.43 76.7 67.43"/>
    <polygon class="cls-1" points="124.06 59.47 124.06 67.43 114.4 67.43 114.4 93.41 104.55 93.41 104.55 67.43 95.36 67.43 95.36 59.47 124.06 59.47"/>
    <polygon class="cls-1" points="60.97 59.47 60.97 93.41 50.99 93.41 38.04 70.98 38.04 93.41 29.26 93.41 29.26 59.47 40.73 59.47 52.24 79.41 52.24 59.47 60.97 59.47"/>
  </g>
</svg>